<svg width="245" height="79" viewBox="0 0 245 79" fill="none" xmlns="http://www.w3.org/2000/svg">
  <path d="M18.0645 0H0V79H18.0645V69.9714L27.0968 79H47.4194L56.4516 69.9714V31.6L47.4194 22.5714H27.0968L18.0645 31.6V0ZM38.3871 40.6286V60.9429H18.0645V40.6286H38.3871ZM107.258 22.5714H95.9677L86.9355 31.6V22.5714H68.871V79H86.9355V40.6286H107.258V22.5714ZM170.484 22.5714H152.419V31.6L143.387 22.5714H123.065L114.032 31.6V69.9714L123.065 79H143.387L152.419 69.9714V79H170.484V22.5714ZM132.097 60.9429V40.6286H152.419V60.9429H132.097ZM245 22.5714H224.602L214.441 41.7571H207.817L197.806 22.5714H177.258L192.237 50.7857L177.258 79H197.656L207.817 59.8143H214.441L224.452 79H245L230.022 50.7857L245 22.5714Z" fill="currentColor"/>
</svg>