<svg width="243" height="78" viewBox="0 0 243 78" fill="none" xmlns="http://www.w3.org/2000/svg">
<path d="M17.917 0H0V78H17.917V69.0857L26.8756 78H47.0323L55.9908 69.0857V31.2L47.0323 22.2857H26.8756L17.917 31.2V0ZM38.0737 40.1143V60.1714H17.917V40.1143H38.0737ZM106.382 22.2857H95.1843L86.2258 31.2V22.2857H68.3088V78H86.2258V40.1143H106.382V22.2857ZM169.092 22.2857H151.175V31.2L142.217 22.2857H122.06L113.101 31.2V69.0857L122.06 78H142.217L151.175 69.0857V78H169.092V22.2857ZM131.018 60.1714V40.1143H151.175V60.1714H131.018ZM243 22.2857H222.769L212.69 41.2286H206.121L196.192 22.2857H175.811L190.667 50.1429L175.811 78H196.042L206.121 59.0571H212.69L222.619 78H243L228.144 50.1429L243 22.2857Z" fill="currentColor"/>
</svg>
